<svg id="Logo" xmlns="http://www.w3.org/2000/svg" width="75" height="16.602" viewBox="0 0 75 16.602">
  <path id="BOOKLY" d="M13.713,14.2a6.325,6.325,0,0,1-1.9-4.653,6.327,6.327,0,0,1,1.9-4.653A6.307,6.307,0,0,1,18.348,3,6.5,6.5,0,0,1,24.9,9.552,6.485,6.485,0,0,1,18.348,16.1,6.3,6.3,0,0,1,13.713,14.2Zm54.5,1.647V10.938l-4.3-7.686H66.72l2.736,5.256,2.736-5.256H75l-4.32,7.686v4.914Zm-11.741,0V3.252h2.484V13.476h4.806v2.376Zm-5.586,0-4.5-5.9v5.9H43.9V3.252h2.484V8.814l4.32-5.562h2.862l-4.662,6.12,4.842,6.48ZM0,15.852V3.252H4.968a3.921,3.921,0,0,1,2.727,1A3.28,3.28,0,0,1,8.8,6.8a3.072,3.072,0,0,1-1.188,2.52A3.114,3.114,0,0,1,9.27,12.2a3.385,3.385,0,0,1-1.134,2.628,4.006,4.006,0,0,1-2.79,1.026ZM29.469,11.2a6.33,6.33,0,0,1-1.9-4.653,6.33,6.33,0,0,1,1.9-4.653,6.617,6.617,0,0,1,9.279,0,6.31,6.31,0,0,1,1.908,4.653,6.339,6.339,0,0,1-1.908,4.662,6.628,6.628,0,0,1-9.279-.009Z" transform="translate(0 0)" fill="#fff"/>
  <path id="Path_72" data-name="Path 72" d="M0,.5H9" transform="translate(29.83 15.352)" fill="none" stroke="#fff" stroke-linecap="round" stroke-miterlimit="10" stroke-width="1.5"/>
</svg>
